<svg width="56" height="53" viewBox="0 0 56 53" fill="none" xmlns="http://www.w3.org/2000/svg">
<path fill-rule="evenodd" clip-rule="evenodd" d="M2.455 2.43215C1.105 3.78215 0 5.64215 0 6.56615C0 7.86515 0.445 7.68015 1.959 5.75715C3.036 4.38715 5.398 2.53715 7.209 1.64515L10.5 0.0231466L7.705 0.000146597C6.047 -0.0138534 3.91 0.976147 2.455 2.43215ZM20.25 1.28015C23.502 2.19015 24 2.72315 24 5.28815V8.24715L21.984 5.68415C17.662 0.190146 10.391 0.122147 6.131 5.53715C3.574 8.78815 3.189 18.0991 5.392 23.3741C7.026 27.2841 11.744 29.1861 13.229 26.5331C14.497 24.2671 21.417 20.9771 24.915 20.9771C28.926 20.9771 33 16.8741 33 12.8351V9.78415L42.397 10.1301C49.91 10.4081 52.216 10.8591 53.897 12.3821L56 14.2871V9.20515C56 4.90515 55.594 3.80315 53.365 2.05015C50.916 0.123147 49.521 -0.0138534 33.615 0.103147C19.79 0.205147 17.221 0.432147 20.25 1.28015ZM38 13.6481C38 15.1171 38.787 17.2191 39.75 18.3181C41.421 20.2261 41.418 20.2861 39.684 19.6531C38.175 19.1011 37.922 19.4461 38.184 21.6931C38.489 24.3071 38.683 24.3871 44 24.1051C50.255 23.7741 53.007 21.9261 52.985 18.0721C52.956 13.2361 49.64 10.9771 42.566 10.9771C38.284 10.9771 38 11.1431 38 13.6481ZM31.028 19.4441C29.827 20.8901 29.832 21.2571 31.064 22.0271C32.052 22.6441 32.602 22.4591 32.827 21.4321C33.42 18.7231 32.484 17.6881 31.028 19.4441ZM0 33.2841C0 39.6631 0.500001 45.9791 1.11 47.3201C2.687 50.7791 6.05201 51.9771 14.195 51.9771H21.296L17.99 49.7271C12.12 45.7321 10.489 42.5821 10.592 35.4391C10.68 29.2991 10.578 29.0251 7.842 28.0721C6.27999 27.5271 3.87601 25.8671 2.50101 24.3831L0 21.6851V33.2841ZM23.42 24.0651C22.367 25.2291 20.266 26.8221 18.752 27.6051C16.122 28.9651 16 29.3601 16 36.4871C16 43.2881 16.253 44.2291 18.873 47.1611C24.587 53.5561 33.495 50.1621 34.706 41.1301C35.075 38.3781 34.882 36.9771 34.132 36.9771C33.431 36.9771 33 34.9431 33 31.6321C33 27.7941 32.507 25.8541 31.25 24.7501C28.124 22.0051 25.493 21.7751 23.42 24.0651ZM53.139 24.0101C51.324 25.5221 49.275 25.9771 44.273 25.9771C38.525 25.9771 37.834 26.1811 38.34 27.7271C41.462 37.2601 41.473 37.5821 38.873 42.6361C37.234 45.8221 35.035 48.2591 32.441 49.7631L28.5 52.0491L40.34 51.7631C56.067 51.3831 56 51.4581 56 34.3661C56 27.5521 55.887 21.9921 55.75 22.0101C55.613 22.0291 54.438 22.9291 53.139 24.0101ZM19 24.4771C18.306 25.3141 18.197 25.9771 18.755 25.9771C19.305 25.9771 20.315 25.3021 21 24.4771C21.694 23.6401 21.803 22.9771 21.245 22.9771C20.695 22.9771 19.685 23.6521 19 24.4771Z" fill="white"/>
</svg>
